REM DIRINDEX 1\2,1\3,1\4
REM DIRNAME cjc085,folder01,folder02,folder03
TITLE ""
FILE "Disc1Track04.mp3" MP3
  TRACK 01 AUDIO
    TITLE "0:"
    INDEX 01 00:00:00
  TRACK 02 AUDIO
    TITLE "4:cjc085_0135"
    INDEX 01 00:06:43
  TRACK 03 AUDIO
    TITLE "0:"
    INDEX 01 00:10:43
  TRACK 04 AUDIO
    TITLE "4:cjc085_0136"
    INDEX 01 00:11:74
  TRACK 05 AUDIO
    TITLE "2:cjc085_0137"
    INDEX 01 00:14:11
  TRACK 06 AUDIO
    TITLE "0:"
    INDEX 01 00:17:69
  TRACK 07 AUDIO
    TITLE "3:cjc085_0138"
    INDEX 01 00:18:09
  TRACK 08 AUDIO
    TITLE "0:"
    INDEX 01 00:22:23
  TRACK 09 AUDIO
    TITLE "4:cjc085_0139"
    INDEX 01 00:22:70
  TRACK 10 AUDIO
    TITLE "2:cjc085_0140"
    INDEX 01 00:24:49
  TRACK 11 AUDIO
    TITLE "0:"
    INDEX 01 00:27:49
  TRACK 12 AUDIO
    TITLE "3:cjc085_0141"
    INDEX 01 00:28:53
  TRACK 13 AUDIO
    TITLE "0:"
    INDEX 01 00:31:59
  TRACK 14 AUDIO
    TITLE "4:cjc085_0142"
    INDEX 01 00:32:45
  TRACK 15 AUDIO
    TITLE "2:cjc085_0143"
    INDEX 01 00:34:16
  TRACK 16 AUDIO
    TITLE "0:"
    INDEX 01 00:38:06
  TRACK 17 AUDIO
    TITLE "3:cjc085_0144"
    INDEX 01 00:38:12
  TRACK 18 AUDIO
    TITLE "0:"
    INDEX 01 00:40:64
  TRACK 19 AUDIO
    TITLE "4:cjc085_0145"
    INDEX 01 00:41:55
  TRACK 20 AUDIO
    TITLE "2:cjc085_0146"
    INDEX 01 00:43:01
  TRACK 21 AUDIO
    TITLE "0:"
    INDEX 01 00:47:66
  TRACK 22 AUDIO
    TITLE "3:cjc085_0147"
    INDEX 01 00:48:16
  TRACK 23 AUDIO
    TITLE "0:"
    INDEX 01 00:51:56
  TRACK 24 AUDIO
    TITLE "4:cjc085_0148"
    INDEX 01 00:53:49
  TRACK 25 AUDIO
    TITLE "2:cjc085_0149"
    INDEX 01 00:56:22
  TRACK 26 AUDIO
    TITLE "0:"
    INDEX 01 01:01:17
  TRACK 27 AUDIO
    TITLE "3:cjc085_0150"
    INDEX 01 01:01:70
  TRACK 28 AUDIO
    TITLE "0:"
    INDEX 01 01:05:01
  TRACK 29 AUDIO
    TITLE "4:cjc085_0151"
    INDEX 01 01:05:54
  TRACK 30 AUDIO
    TITLE "2:cjc085_0152"
    INDEX 01 01:07:43
  TRACK 31 AUDIO
    TITLE "0:"
    INDEX 01 01:10:30
  TRACK 32 AUDIO
    TITLE "3:cjc085_0153"
    INDEX 01 01:11:27
  TRACK 33 AUDIO
    TITLE "0:"
    INDEX 01 01:14:41
  TRACK 34 AUDIO
    TITLE "4:cjc085_0154"
    INDEX 01 01:15:15
  TRACK 35 AUDIO
    TITLE "2:cjc085_0155"
    INDEX 01 01:16:61
  TRACK 36 AUDIO
    TITLE "0:"
    INDEX 01 01:18:62
  TRACK 37 AUDIO
    TITLE "3:cjc085_0156"
    INDEX 01 01:19:38
  TRACK 38 AUDIO
    TITLE "0:"
    INDEX 01 01:21:41
  TRACK 39 AUDIO
    TITLE "4:cjc085_0157"
    INDEX 01 01:22:44
  TRACK 40 AUDIO
    TITLE "2:cjc085_0158"
    INDEX 01 01:24:30
  TRACK 41 AUDIO
    TITLE "0:"
    INDEX 01 01:28:27
  TRACK 42 AUDIO
    TITLE "3:cjc085_0159"
    INDEX 01 01:28:45
  TRACK 43 AUDIO
    TITLE "0:"
    INDEX 01 01:32:10
  TRACK 44 AUDIO
    TITLE "4:cjc085_0160"
    INDEX 01 01:33:07
  TRACK 45 AUDIO
    TITLE "2:cjc085_0161"
    INDEX 01 01:34:54
  TRACK 46 AUDIO
    TITLE "0:"
    INDEX 01 01:38:42
  TRACK 47 AUDIO
    TITLE "3:cjc085_0162"
    INDEX 01 01:39:27
  TRACK 48 AUDIO
    TITLE "0:"
    INDEX 01 01:42:43
  TRACK 49 AUDIO
    TITLE "4:cjc085_0163"
    INDEX 01 01:44:36
  TRACK 50 AUDIO
    TITLE "2:cjc085_0164"
    INDEX 01 01:46:18
  TRACK 51 AUDIO
    TITLE "0:"
    INDEX 01 01:48:71
  TRACK 52 AUDIO
    TITLE "3:cjc085_0165"
    INDEX 01 01:49:49
  TRACK 53 AUDIO
    TITLE "0:"
    INDEX 01 01:52:00
  TRACK 54 AUDIO
    TITLE "4:cjc085_0166"
    INDEX 01 01:52:63
  TRACK 55 AUDIO
    TITLE "2:cjc085_0167"
    INDEX 01 01:54:42
  TRACK 56 AUDIO
    TITLE "0:"
    INDEX 01 01:58:44
  TRACK 57 AUDIO
    TITLE "3:cjc085_0168"
    INDEX 01 01:59:28
  TRACK 58 AUDIO
    TITLE "0:"
    INDEX 01 02:03:45
  TRACK 59 AUDIO
    TITLE "4:cjc085_0169"
    INDEX 01 02:04:19
  TRACK 60 AUDIO
    TITLE "2:cjc085_0170"
    INDEX 01 02:05:58
  TRACK 61 AUDIO
    TITLE "0:"
    INDEX 01 02:08:33
  TRACK 62 AUDIO
    TITLE "3:cjc085_0171"
    INDEX 01 02:09:19
  TRACK 63 AUDIO
    TITLE "0:"
    INDEX 01 02:11:55
  TRACK 64 AUDIO
    TITLE "4:cjc085_0172"
    INDEX 01 02:12:38
  TRACK 65 AUDIO
    TITLE "2:cjc085_0173"
    INDEX 01 02:14:22
  TRACK 66 AUDIO
    TITLE "0:"
    INDEX 01 02:18:47
  TRACK 67 AUDIO
    TITLE "3:cjc085_0174"
    INDEX 01 02:19:21
  TRACK 68 AUDIO
    TITLE "0:"
    INDEX 01 02:23:36
  TRACK 69 AUDIO
    TITLE "4:cjc085_0175"
    INDEX 01 02:24:00
  TRACK 70 AUDIO
    TITLE "2:cjc085_0176"
    INDEX 01 02:25:65
  TRACK 71 AUDIO
    TITLE "0:"
    INDEX 01 02:29:53
  TRACK 72 AUDIO
    TITLE "3:cjc085_0177"
    INDEX 01 02:30:23
  TRACK 73 AUDIO
    TITLE "0:"
    INDEX 01 02:34:40
  TRACK 74 AUDIO
    TITLE "4:cjc085_0178"
    INDEX 01 02:34:50
  TRACK 75 AUDIO
    TITLE "2:cjc085_0179"
    INDEX 01 02:36:12
  TRACK 76 AUDIO
    TITLE "0:"
    INDEX 01 02:40:31
  TRACK 77 AUDIO
    TITLE "3:cjc085_0180"
    INDEX 01 02:40:66
  TRACK 78 AUDIO
    TITLE "0:"
    INDEX 01 02:44:52
  TRACK 79 AUDIO
    TITLE "4:cjc085_0181"
    INDEX 01 02:45:40
  TRACK 80 AUDIO
    TITLE "2:cjc085_0182"
    INDEX 01 02:47:19
  TRACK 81 AUDIO
    TITLE "0:"
    INDEX 01 02:51:23
  TRACK 82 AUDIO
    TITLE "3:cjc085_0183"
    INDEX 01 02:51:70
  TRACK 83 AUDIO
    TITLE "0:"
    INDEX 01 02:55:56
